<?xml version="1.0" encoding="UTF-8" standalone="no"?><!DOCTYPE svg PUBLIC "-//W3C//DTD SVG 1.1//EN" "http://www.w3.org/Graphics/SVG/1.1/DTD/svg11.dtd"><svg width="100%" height="100%" viewBox="0 0 481 480" version="1.1" xmlns="http://www.w3.org/2000/svg" xmlns:xlink="http://www.w3.org/1999/xlink" xml:space="preserve" xmlns:serif="http://www.serif.com/" style="fill-rule:evenodd;clip-rule:evenodd;stroke-linejoin:round;stroke-miterlimit:2;"><style>@media (prefers-color-scheme: dark) { path { fill: #CCC } }</style><path d="M100.174,175.875c0,-77.377 62.82,-140.196 140.196,-140.196c77.377,-0 140.196,62.819 140.196,140.196c0,9.384 -7.619,17.004 -17.004,17.004c-0.087,-0 -0.174,-0.001 -0.262,-0.002c-0.087,0.001 -0.174,0.002 -0.262,0.002l-245.86,-0c-9.384,-0 -17.004,-7.62 -17.004,-17.004Zm245.028,-17.004c-2.86,-17.742 -10.123,-34.018 -20.629,-47.672c-22.856,2.17 -42.718,14.611 -54.919,32.657l-38.462,0c11.512,-27.598 34.056,-49.445 62.124,-60.031c-15.589,-8.992 -33.671,-14.139 -52.946,-14.139c-52.819,0 -96.684,38.649 -104.831,89.185l209.663,-0Z"/><path d="M256.85,207.893l-0,127.534c-0,60.141 -48.754,108.894 -108.895,108.894c-9.384,0 -17.003,-7.619 -17.003,-17.004c-0,-7.963 6.262,-17.003 17.004,-17.003c41.358,-0 74.886,-33.528 74.886,-74.887l0,-127.534l34.008,-0Z"/></svg>